<?xml version="1.0" standalone="no"?>
<!DOCTYPE svg PUBLIC "-//W3C//DTD SVG 20010904//EN"
 "http://www.w3.org/TR/2001/REC-SVG-20010904/DTD/svg10.dtd">
<svg version="1.0" xmlns="http://www.w3.org/2000/svg"
 width="900.000000pt" height="909.000000pt" viewBox="0 0 900.000000 909.000000"
 preserveAspectRatio="xMidYMid meet">
<metadata>
Created by potrace 1.10, written by Peter Selinger 2001-2011
</metadata>
<g transform="translate(0.000000,909.000000) scale(0.100000,-0.100000)"
fill="#000000" stroke="none">
<path d="M4193 9079 c3 -17 -40 -35 -173 -70 -121 -31 -307 -130 -393 -208
-16 -14 -40 -45 -54 -68 -20 -35 -30 -43 -54 -43 -64 0 -179 -77 -204 -137
-12 -28 -15 -84 -15 -254 l0 -219 -42 -26 c-121 -75 -135 -176 -72 -539 53
-311 84 -379 187 -405 23 -6 47 -13 53 -15 7 -2 14 -18 17 -37 2 -18 9 -46 15
-63 6 -16 18 -57 27 -90 16 -57 25 -83 55 -165 21 -58 18 -89 -10 -104 -75
-38 -93 -46 -109 -46 -9 0 -26 -7 -37 -15 -10 -8 -25 -15 -32 -15 -7 0 -40
-13 -75 -29 -34 -16 -69 -32 -77 -35 -8 -4 -42 -21 -75 -39 -33 -19 -82 -46
-110 -61 -27 -15 -63 -36 -80 -47 -16 -10 -37 -22 -45 -26 -8 -4 -30 -17 -48
-29 -18 -12 -54 -32 -80 -44 -26 -12 -61 -28 -79 -37 -33 -16 -67 -16 -295 3
-133 11 -269 -17 -411 -87 -132 -64 -269 -169 -339 -261 -20 -26 -43 -55 -52
-63 -21 -21 -126 -192 -126 -206 0 -5 -5 -20 -12 -32 -29 -52 -78 -222 -78
-271 0 -26 -24 -41 -90 -56 -25 -5 -70 -19 -100 -30 -30 -12 -66 -25 -80 -30
-87 -27 -195 -102 -370 -257 -229 -201 -250 -230 -380 -518 -63 -138 -76 -159
-153 -241 -116 -123 -157 -180 -184 -254 -14 -40 -18 -270 -4 -298 4 -9 16
-35 27 -57 45 -97 141 -190 214 -206 22 -5 84 -14 138 -19 129 -13 320 -58
346 -80 10 -9 -11 -22 -74 -43 -25 -9 -70 -26 -100 -37 -30 -12 -66 -25 -80
-30 -14 -5 -50 -18 -80 -30 -30 -12 -107 -39 -170 -61 -63 -22 -124 -44 -135
-48 -11 -5 -28 -12 -39 -15 -16 -5 -17 -13 -12 -54 7 -49 28 -129 52 -197 8
-23 14 -52 14 -66 0 -28 37 -69 63 -69 23 0 46 -49 39 -85 -3 -16 -8 -406 -11
-866 -5 -722 -8 -838 -21 -855 -8 -10 -33 -36 -56 -59 -66 -66 -74 -92 -74
-257 0 -78 7 -183 15 -233 8 -50 15 -93 15 -97 0 -5 7 -8 15 -8 8 0 15 4 15
10 0 5 12 16 28 24 15 8 36 23 47 33 37 35 162 125 330 240 39 26 78 52 87 58
9 5 43 27 75 49 139 93 161 107 213 133 l55 28 -3 155 c-1 85 -7 201 -12 258
-12 134 -7 147 62 156 71 9 160 25 233 41 33 8 78 17 100 20 22 3 54 10 70 15
17 5 62 18 100 29 39 11 95 29 125 41 30 12 69 25 85 29 34 9 95 30 175 61 30
12 66 25 80 30 24 8 83 31 125 50 11 5 47 16 80 25 33 9 82 23 108 31 56 17
153 22 167 8 5 -5 12 -97 16 -204 5 -155 3 -222 -10 -325 -13 -99 -14 -143 -6
-184 13 -68 12 -538 -1 -611 -6 -30 -13 -119 -16 -197 -5 -140 -4 -143 16
-143 12 0 29 4 39 9 53 28 154 71 202 86 121 38 137 43 200 60 36 9 83 23 105
31 22 7 67 16 100 19 87 8 216 34 355 70 86 23 229 45 292 45 68 0 76 9 84
102 7 86 13 108 25 108 10 0 127 -86 139 -102 15 -20 155 -77 215 -87 122 -22
413 -2 485 33 58 28 123 65 140 81 9 8 21 15 26 15 5 0 26 16 46 36 43 42 47
38 68 -66 7 -36 17 -70 22 -77 5 -6 42 -13 81 -16 104 -6 322 -45 408 -72 26
-8 54 -15 64 -15 10 0 38 -6 64 -14 153 -47 261 -70 297 -63 130 25 199 58
276 133 71 70 113 132 127 186 13 56 14 288 2 409 -8 76 -14 92 -51 147 l-41
63 40 59 c47 72 56 130 49 315 -5 111 -8 126 -38 188 -18 37 -31 70 -27 73 3
3 36 -5 74 -19 37 -14 104 -35 148 -47 191 -53 335 -98 445 -140 49 -19 94
-35 234 -87 22 -8 63 -25 90 -37 28 -13 59 -26 68 -29 15 -5 18 -23 20 -124 3
-132 -5 -118 98 -159 25 -10 63 -29 85 -43 22 -14 94 -53 160 -87 66 -34 140
-74 165 -88 25 -14 52 -29 60 -33 8 -3 29 -17 45 -29 17 -12 67 -39 112 -60
82 -39 83 -39 83 -76 0 -38 27 -78 51 -78 14 0 144 -86 179 -117 14 -13 28
-23 32 -23 3 0 21 -12 39 -27 17 -16 73 -57 125 -93 131 -92 237 -176 325
-259 55 -50 84 -71 103 -71 l26 0 0 95 c0 74 -3 95 -14 95 -20 0 -26 33 -26
156 0 108 -9 156 -46 257 -47 124 -65 179 -74 217 -10 37 -32 115 -48 165 -6
17 -17 55 -26 85 -8 30 -27 98 -41 150 -15 52 -33 118 -41 145 -29 99 -45 161
-55 210 -6 27 -15 57 -20 67 -14 26 -1 46 49 70 57 29 141 128 165 196 16 45
18 84 15 403 l-3 354 -55 83 c-30 45 -71 108 -90 138 -42 67 -55 84 -117 146
-52 52 -187 124 -288 153 -78 23 -126 46 -122 59 2 6 26 14 54 17 28 4 56 10
62 13 22 14 119 27 262 35 132 7 149 10 192 35 26 15 60 44 75 64 41 52 87
155 108 240 18 70 18 74 0 145 -10 39 -24 82 -32 94 -8 12 -14 27 -14 32 0 19
-63 107 -120 166 -52 54 -150 187 -150 203 0 3 -14 36 -32 72 -17 36 -38 81
-46 100 -57 131 -176 279 -312 388 -25 21 -63 54 -85 74 -61 56 -215 168 -232
168 -4 0 -14 6 -22 13 -14 12 -133 64 -291 127 -30 12 -47 26 -52 42 -4 12
-14 52 -24 88 -42 159 -109 297 -199 409 -47 58 -238 242 -265 254 -8 4 -28
16 -45 27 -39 25 -159 84 -210 103 -107 40 -159 43 -485 21 l-85 -6 -90 50
c-49 27 -106 58 -125 70 -19 11 -55 32 -80 45 -25 14 -61 34 -80 45 -53 31
-179 92 -191 92 -6 0 -23 6 -37 13 -15 8 -42 21 -60 30 -19 9 -38 17 -43 17
-5 0 -37 13 -71 29 -35 15 -77 34 -95 41 -36 14 -47 33 -33 58 18 31 110 318
110 343 0 39 26 65 82 84 77 25 107 62 134 164 8 30 17 82 20 115 4 34 12 84
19 111 37 137 48 410 20 464 -16 33 -88 91 -112 91 -15 0 -15 -9 -13 246 1
212 -7 251 -63 311 -28 30 -110 63 -182 75 -11 2 -21 12 -24 23 -7 37 -53 84
-139 143 -84 57 -226 132 -250 132 -6 0 -26 6 -44 14 -35 14 -125 41 -170 51
-16 3 -28 12 -28 20 0 13 -35 15 -240 15 -168 0 -239 -3 -237 -11z m316 -80
c92 -11 100 -13 106 -36 3 -13 16 -47 29 -76 13 -28 32 -77 41 -107 10 -30 24
-72 31 -93 20 -54 18 -87 -4 -87 -24 0 -42 19 -42 44 0 26 -28 124 -46 159 -8
16 -14 32 -14 37 0 4 -12 27 -27 49 l-27 41 -112 0 -112 0 -35 -41 c-37 -43
-58 -93 -84 -199 -22 -94 -21 -92 -40 -88 -30 6 -22 69 28 238 36 121 53 148
96 155 21 4 43 8 48 10 20 7 66 5 164 -6z m304 -69 c23 0 158 -62 247 -115 86
-50 180 -134 180 -161 0 -34 -32 -26 -78 18 -45 43 -97 80 -169 120 -40 22
-53 23 -53 3 0 -8 4 -15 8 -15 12 0 122 -100 122 -111 0 -5 -8 -9 -19 -9 -18
0 -193 153 -199 175 -2 5 -30 23 -62 39 -58 29 -77 55 -57 75 7 7 19 5 38 -5
15 -7 34 -14 42 -14z m-660 7 c8 -20 -2 -29 -69 -71 -33 -20 -108 -81 -165
-136 -57 -55 -109 -99 -116 -100 -43 -1 -1 51 114 145 34 27 59 53 54 58 -15
15 -180 -83 -231 -138 -25 -27 -71 -55 -90 -55 -22 0 -9 47 23 77 87 81 196
146 332 196 111 40 140 45 148 24z m-538 -376 c296 -65 1259 -63 1655 3 118
20 145 13 185 -43 l30 -43 -2 -247 c-1 -155 -8 -291 -17 -366 -9 -66 -16 -153
-16 -195 0 -89 -26 -305 -46 -374 -8 -26 -14 -59 -14 -71 0 -13 -5 -36 -11
-52 -6 -15 -14 -46 -19 -68 -4 -22 -14 -56 -20 -75 -7 -19 -18 -51 -25 -70 -7
-19 -20 -62 -30 -95 -9 -33 -21 -73 -27 -90 -5 -16 -13 -46 -18 -65 -7 -33
-12 -47 -47 -129 -49 -112 -204 -285 -294 -327 -81 -38 -198 -74 -314 -95
-144 -27 -357 -9 -433 35 -30 17 -32 20 -17 29 12 6 30 6 55 -2 73 -22 237
-32 335 -21 51 5 105 14 120 20 14 5 53 10 85 10 36 0 62 5 67 13 4 6 30 23
56 37 150 77 279 235 336 410 17 50 25 79 66 220 33 116 48 167 57 190 6 14
14 45 19 70 5 25 15 77 23 115 8 39 19 93 24 120 6 28 17 172 26 320 9 149 21
344 27 434 13 193 6 284 -23 313 -23 23 -35 15 -40 -26 -4 -41 -25 -44 -35 -5
-18 68 -63 61 -63 -9 0 -43 -19 -38 -34 8 -9 28 -16 35 -36 35 -21 0 -25 -4
-22 -27 4 -36 -19 -37 -51 -3 -29 32 -23 31 -357 16 -219 -11 -345 -11 -609
-2 -183 7 -345 14 -360 17 -22 5 -35 -1 -62 -25 -41 -38 -49 -39 -49 -6 0 54
-61 42 -70 -14 -7 -43 -24 -40 -30 6 -4 32 -9 38 -30 38 -20 0 -26 -6 -30 -29
-6 -38 -23 -36 -31 4 -9 40 -13 44 -37 31 -16 -8 -22 -25 -27 -73 -9 -80 13
-751 25 -798 6 -19 10 -62 10 -95 1 -33 5 -80 11 -105 5 -25 16 -74 24 -110 7
-36 18 -87 24 -115 6 -27 15 -59 19 -70 14 -31 39 -116 47 -155 4 -19 11 -39
15 -45 4 -5 11 -31 14 -57 4 -26 11 -50 17 -53 5 -4 9 -21 9 -39 0 -18 7 -41
15 -52 8 -10 15 -26 15 -34 0 -8 7 -28 15 -44 8 -15 15 -35 15 -43 0 -8 14
-32 30 -53 17 -21 30 -43 30 -49 0 -6 33 -44 73 -85 67 -68 180 -146 212 -146
20 0 30 -21 15 -30 -43 -27 -242 113 -316 222 -16 24 -32 45 -35 48 -10 9 -62
124 -70 155 -4 17 -13 46 -20 65 -6 19 -17 51 -24 70 -7 19 -18 55 -24 80 -15
58 -27 97 -39 135 -6 17 -18 57 -27 90 -10 33 -23 76 -31 95 -7 19 -16 61 -20
93 -3 31 -10 60 -15 63 -5 3 -9 33 -10 67 0 34 -5 89 -10 122 -14 91 -38 454
-45 685 -8 242 -2 276 58 333 28 26 45 36 61 32 12 -2 63 -13 112 -24z m1413
-422 c2 -224 1 -248 -15 -267 -17 -19 -37 -21 -263 -32 -141 -7 -317 -10 -415
-6 -93 4 -237 9 -320 11 -125 4 -152 8 -162 22 -10 12 -13 80 -13 254 0 199 2
239 15 249 12 10 37 11 103 5 120 -12 709 -10 867 2 72 6 146 10 165 9 l35 -1
3 -246z m-1710 -213 c2 -16 -4 -36 -14 -47 -14 -15 -14 -21 -4 -34 11 -13 10
-19 -5 -35 -15 -16 -17 -37 -15 -157 3 -160 3 -163 -10 -143 -6 8 -8 26 -5 41
3 14 -2 68 -11 120 -10 51 -19 126 -21 165 -4 70 -4 71 28 98 37 32 53 30 57
-8z m2293 3 c19 -19 20 -28 13 -132 -4 -68 -12 -118 -19 -127 -8 -8 -15 -28
-18 -45 -2 -16 -5 10 -6 58 -1 87 -14 166 -32 199 -11 21 -12 52 -2 61 13 13
43 7 64 -14z m-503 -185 c28 -9 62 -28 75 -43 73 -79 76 -224 9 -386 -21 -48
-114 -143 -168 -170 -98 -48 -152 -116 -139 -174 3 -16 23 -55 44 -87 46 -72
61 -123 61 -203 0 -78 -17 -143 -55 -208 -33 -57 -150 -183 -169 -183 -39 0
-25 31 55 119 82 89 112 155 117 257 4 87 -12 142 -63 210 -46 60 -53 148 -19
216 17 34 86 89 142 113 58 25 115 84 149 153 22 47 28 74 31 149 3 81 1 97
-17 127 -35 55 -78 70 -190 63 -271 -17 -617 -28 -701 -23 -505 32 -491 32
-552 -33 -36 -38 -38 -44 -38 -107 0 -148 80 -287 194 -341 81 -37 116 -68
146 -125 29 -55 25 -94 -15 -163 -59 -102 -78 -148 -83 -207 -8 -98 45 -214
149 -325 49 -52 64 -93 33 -93 -24 0 -148 142 -193 220 -18 32 -51 156 -51
195 0 41 27 108 77 191 58 96 59 138 5 186 -21 19 -64 49 -97 68 -137 78 -225
230 -225 388 0 73 19 124 61 168 48 50 96 58 272 49 221 -12 796 -11 912 2
147 15 187 15 243 -3z m-641 -216 c26 -29 53 -100 53 -138 0 -64 40 -108 55
-60 8 24 15 25 41 5 30 -23 54 -19 54 10 0 23 4 25 43 25 23 -1 60 -7 81 -15
25 -9 46 -11 55 -5 13 7 10 10 -12 15 -15 4 -26 12 -24 18 4 13 154 66 188 67
14 0 34 -9 44 -20 18 -20 18 -22 -3 -63 -29 -57 -53 -78 -139 -117 -112 -52
-163 -133 -163 -263 0 -59 5 -80 40 -153 44 -93 51 -158 25 -204 -8 -14 -14
-34 -15 -46 0 -11 -9 -29 -20 -39 -11 -10 -20 -26 -20 -35 0 -9 -9 -25 -19
-34 -19 -17 -20 -17 -34 11 l-15 28 -6 -25 c-3 -14 -7 -41 -8 -60 -4 -45 -33
-54 -48 -15 -12 32 -31 28 -41 -9 -17 -63 -56 -76 -61 -19 -4 53 -25 52 -48
-1 -10 -25 -23 -46 -28 -46 -17 0 -33 27 -39 64 -9 57 -43 42 -43 -20 0 -13
-4 -25 -10 -25 -5 -1 -15 -2 -20 -3 -6 -1 -18 14 -28 33 -20 40 -42 52 -42 23
0 -11 -6 -25 -14 -31 -12 -10 -18 -8 -30 11 -8 13 -18 40 -21 61 -8 40 -16 45
-35 22 -19 -23 -29 -18 -36 20 -3 19 -16 47 -28 62 -21 28 -56 123 -56 156 0
9 12 41 26 70 43 90 64 159 64 218 0 114 -66 202 -200 266 -55 27 -93 66 -108
111 -10 30 -9 36 13 58 25 24 69 32 80 14 10 -16 82 -50 105 -50 21 0 28 -24
9 -36 -8 -5 -7 -9 3 -15 14 -8 119 19 134 34 4 4 16 7 26 7 16 0 17 -5 12 -40
-5 -32 -4 -40 9 -40 8 0 24 12 35 27 17 23 22 25 36 14 21 -18 42 -1 52 42 14
64 73 157 99 157 6 0 21 -10 32 -22z m424 -41 c-7 -13 -32 -34 -55 -46 -52
-29 -101 -23 -136 14 -21 23 -22 25 -5 31 10 4 26 2 36 -4 28 -18 69 -14 119
13 51 26 59 25 41 -8z m-854 -2 c41 -17 79 -19 88 -5 3 6 19 10 36 10 57 0 27
-42 -50 -68 -30 -11 -39 -9 -77 13 -47 28 -58 40 -49 55 8 13 9 13 52 -5z
m-717 -108 c0 -21 7 -45 15 -53 8 -9 15 -25 15 -38 0 -12 5 -27 12 -34 20 -20
1 -25 -21 -5 -13 11 -21 29 -21 49 0 17 -7 37 -15 44 -15 13 -21 81 -8 93 11
12 23 -16 23 -56z m2210 -104 c0 -19 -3 -24 -10 -17 -6 6 -8 18 -4 27 9 24 14
21 14 -10z m-1900 -765 c15 -20 24 -47 24 -68 1 -34 -29 -88 -49 -90 -10 -1
-73 -41 -192 -121 -129 -88 -206 -113 -127 -42 21 18 34 36 30 40 -7 7 -32 -6
-111 -56 -22 -14 -78 -36 -125 -49 -161 -44 -171 -47 -171 -57 0 -6 28 -18 63
-27 106 -30 295 -86 393 -118 56 -18 188 -50 206 -50 10 0 38 -6 61 -13 24 -8
79 -22 123 -31 44 -10 98 -22 120 -28 22 -6 60 -14 85 -18 197 -31 316 -99
426 -242 25 -32 50 -58 55 -56 5 2 39 43 76 93 67 88 114 128 183 154 74 27
169 50 280 65 108 16 137 22 269 60 29 9 61 16 72 16 28 0 244 56 299 78 14 5
52 17 85 27 33 9 76 23 95 30 19 7 66 22 103 32 67 19 86 35 50 41 -23 4 -111
29 -188 54 -33 11 -93 37 -134 59 -71 37 -101 47 -101 33 0 -10 45 -50 64 -57
19 -8 21 -27 2 -27 -19 0 -124 57 -167 91 -20 16 -40 29 -44 29 -31 0 -175
151 -175 184 0 29 35 86 57 92 13 4 41 -2 65 -14 141 -65 179 -82 189 -82 6 0
23 -6 37 -14 15 -7 74 -37 132 -65 58 -28 146 -74 195 -101 50 -27 113 -61
140 -75 28 -15 64 -37 80 -49 68 -51 226 -75 278 -42 48 30 249 27 337 -4 98
-35 118 -43 150 -58 76 -36 206 -139 296 -233 58 -62 144 -180 144 -200 0 -5
6 -20 14 -32 21 -32 106 -298 106 -330 0 -26 -19 -30 -30 -5 -6 13 -19 37 -30
53 -11 17 -24 39 -29 50 -11 24 -187 205 -200 205 -5 0 -11 7 -15 15 -6 17
-26 20 -26 5 0 -6 32 -48 71 -94 67 -77 135 -183 125 -193 -2 -2 -19 12 -38
32 -161 176 -282 273 -423 339 -22 11 -52 25 -67 33 -31 15 -48 17 -48 3 0 -5
11 -12 24 -16 14 -3 27 -12 30 -20 3 -8 10 -14 15 -14 38 0 299 -213 345 -281
36 -53 19 -56 -28 -6 -52 53 -174 145 -248 185 -68 37 -217 102 -233 102 -7 0
-26 7 -44 16 -24 12 -36 13 -44 5 -8 -8 -2 -12 20 -17 18 -3 34 -12 37 -20 3
-8 12 -14 21 -14 18 0 203 -109 259 -153 47 -37 107 -99 101 -105 -2 -3 -26
11 -52 30 -89 64 -301 160 -458 208 -38 11 -91 27 -116 35 -52 17 -109 20
-109 6 0 -11 25 -21 55 -21 12 0 28 -6 34 -14 6 -8 24 -16 39 -19 24 -5 83
-24 137 -45 138 -55 330 -170 313 -187 -5 -5 -45 12 -206 86 -34 16 -69 29
-77 29 -8 0 -29 6 -47 14 -110 47 -368 94 -368 67 0 -8 57 -31 125 -51 51 -14
159 -53 210 -76 91 -39 125 -57 131 -65 3 -5 14 -9 24 -9 10 0 23 -6 27 -13 4
-8 16 -17 26 -20 10 -4 15 -12 12 -18 -5 -7 -13 -5 -24 5 -10 9 -29 16 -42 16
-14 0 -29 4 -35 9 -9 10 -73 35 -129 51 -270 79 -367 100 -379 81 -4 -6 5 -13
21 -16 15 -3 42 -12 58 -19 17 -8 50 -21 75 -31 102 -39 128 -51 183 -85 32
-19 69 -41 82 -48 14 -7 25 -17 25 -23 0 -15 -36 -11 -50 6 -7 8 -23 15 -36
15 -12 0 -25 4 -28 9 -3 5 -36 18 -73 29 -222 67 -239 66 -164 -13 47 -49 131
-203 131 -239 0 -8 7 -27 15 -42 8 -16 15 -50 15 -75 0 -36 -5 -51 -25 -69
-25 -23 -25 -23 -40 -4 -18 23 -18 30 -4 56 19 36 -29 138 -130 273 -87 117
-280 285 -392 342 -111 56 -273 59 -352 7 -35 -23 -41 -24 -75 -12 -22 7 -85
13 -152 13 -93 0 -124 -4 -160 -20 -129 -56 -276 -215 -347 -373 -106 -238
-154 -583 -104 -738 54 -165 141 -263 267 -300 56 -16 72 -16 218 2 30 4 46 3
43 -4 -14 -21 -106 -37 -212 -37 -103 0 -114 2 -176 32 -37 18 -92 55 -123 84
-52 48 -70 71 -95 127 -17 37 -34 27 -75 -46 -53 -95 -107 -135 -247 -182 -75
-26 -259 -29 -279 -5 -7 8 -24 15 -37 15 -15 0 -23 5 -20 13 4 13 71 11 99 -4
32 -17 153 -10 213 13 96 37 189 157 232 302 43 144 21 388 -58 626 -45 139
-147 284 -268 382 -112 90 -164 110 -286 112 -78 1 -107 -3 -132 -17 -44 -23
-55 -22 -115 15 -49 31 -56 32 -157 33 -95 0 -112 -3 -162 -27 -133 -64 -303
-226 -492 -467 -41 -51 -77 -137 -77 -181 0 -48 -9 -55 -37 -28 -36 34 -32
100 12 190 52 107 86 162 126 205 20 22 42 50 49 63 11 21 11 23 -11 16 -13
-3 -42 -9 -64 -12 -49 -7 -130 -31 -168 -50 -33 -16 -77 -19 -77 -5 0 6 12 16
28 25 41 22 151 75 202 98 107 48 132 63 111 66 -11 2 -29 -2 -40 -7 -11 -6
-32 -11 -48 -11 -28 0 -203 -51 -261 -76 -18 -8 -41 -14 -50 -14 -10 0 -27 -7
-38 -15 -22 -17 -74 -20 -74 -5 0 6 8 13 18 17 9 3 53 22 97 43 44 21 105 48
135 60 30 12 87 35 125 50 39 16 80 32 93 35 31 9 18 25 -20 25 -59 0 -242
-53 -363 -105 -16 -7 -50 -20 -75 -30 -25 -9 -60 -23 -78 -31 -60 -26 -101
-10 -47 18 180 96 338 167 390 175 17 3 37 11 45 18 8 8 30 15 49 17 19 2 36
9 39 16 5 17 -58 15 -82 -3 -11 -8 -35 -15 -54 -15 -60 0 -185 -45 -374 -134
-54 -25 -102 -46 -107 -46 -5 0 -14 -7 -21 -15 -7 -8 -23 -15 -36 -15 -13 0
-24 -4 -24 -10 0 -5 -5 -10 -10 -10 -6 0 -3 11 6 25 9 14 21 25 26 25 5 0 35
19 66 43 31 24 91 60 132 82 41 21 77 42 78 47 2 4 12 8 22 8 10 0 22 5 25 10
12 19 -25 22 -59 6 -19 -9 -41 -16 -49 -16 -9 0 -28 -6 -44 -14 -15 -8 -59
-29 -98 -47 -78 -38 -175 -101 -248 -161 -84 -70 -65 -31 29 60 90 88 232 192
260 192 8 0 17 7 20 15 4 8 14 15 24 15 21 0 35 16 22 24 -5 3 -18 -1 -28 -9
-10 -8 -28 -15 -40 -15 -11 0 -41 -11 -65 -25 -24 -14 -51 -28 -59 -32 -74
-34 -284 -224 -351 -318 -31 -44 -49 -56 -49 -35 0 21 51 111 93 162 23 29 50
65 60 80 9 15 27 36 39 48 13 12 17 20 9 20 -8 0 -24 -11 -37 -25 -13 -14 -26
-25 -29 -25 -4 0 -34 -28 -69 -62 -55 -55 -92 -115 -131 -208 -3 -8 -15 -31
-25 -50 l-19 -35 0 30 c-1 37 22 160 43 239 63 233 286 506 496 606 25 12 57
28 72 36 14 8 35 14 46 14 11 0 36 7 55 15 49 20 251 21 304 1 110 -41 177
-25 358 84 176 108 356 202 520 275 107 48 203 84 221 85 12 0 30 -14 44 -32z
m120 -308 c11 -21 20 -46 20 -54 0 -8 6 -27 14 -43 15 -30 32 -79 46 -128 5
-16 12 -41 16 -54 6 -21 5 -23 -12 -17 -10 5 -48 12 -84 18 -173 26 -301 56
-318 72 -11 11 -5 18 33 44 48 32 46 54 -2 28 -16 -8 -50 -17 -76 -21 -87 -13
-57 17 86 87 258 127 248 124 277 68z m1292 2 c-7 -2 -12 -20 -12 -40 0 -20
-7 -46 -15 -56 -8 -11 -15 -30 -15 -42 0 -12 -6 -35 -14 -51 -8 -15 -23 -47
-33 -70 -10 -24 -24 -43 -30 -43 -16 0 -16 15 -1 43 6 12 15 35 19 52 4 16 17
55 29 85 12 30 24 64 28 75 9 32 46 78 51 64 2 -7 -1 -15 -7 -17z m235 -11
c43 -22 117 -58 164 -81 97 -46 133 -75 105 -86 -15 -6 -86 14 -151 42 -16 7
-37 15 -45 18 -15 6 -24 11 -65 34 -11 7 -30 16 -42 21 -11 6 -24 15 -28 20
-8 14 -45 14 -45 1 0 -6 8 -14 18 -17 9 -4 23 -13 30 -20 7 -7 19 -13 26 -13
8 0 19 -7 26 -15 7 -8 20 -15 30 -15 10 0 23 -7 30 -15 7 -8 20 -15 30 -15 10
0 23 -6 30 -14 6 -8 21 -16 32 -18 12 -2 23 -9 25 -15 10 -28 -147 -68 -304
-79 -99 -6 -103 -5 -103 14 0 12 4 23 9 26 5 3 11 20 14 38 7 42 26 113 42
158 8 19 16 43 19 53 9 29 68 21 153 -22z m-1417 -17 c0 -26 -17 -33 -26 -9
-8 20 3 48 16 40 5 -3 10 -17 10 -31z m1061 -57 c-6 -6 -11 -22 -11 -36 0 -15
-7 -35 -15 -45 -8 -11 -15 -26 -15 -34 0 -8 -13 -33 -28 -56 -15 -22 -31 -50
-35 -60 -5 -13 -11 -16 -18 -9 -7 7 -5 19 5 39 8 16 22 49 31 74 10 25 23 57
31 72 8 14 14 33 14 42 0 8 6 19 13 23 8 4 17 17 22 28 8 19 9 19 13 -4 2 -13
-1 -28 -7 -34z m-1033 -3 c3 -18 21 -62 49 -116 7 -14 13 -36 13 -48 0 -30
-24 -20 -28 13 -2 14 -10 31 -18 37 -8 7 -14 25 -14 40 0 16 -7 30 -15 34 -19
7 -21 70 -2 64 6 -3 13 -13 15 -24z m92 4 c6 -13 14 -30 19 -38 7 -14 20 -42
58 -130 8 -19 19 -43 24 -52 17 -33 9 -42 -13 -18 -24 25 -43 54 -53 80 -3 8
-13 28 -21 43 -7 16 -14 36 -14 46 0 9 -7 27 -16 39 -9 13 -13 29 -10 37 8 21
15 19 26 -7z m332 -166 c9 -22 98 -82 121 -82 14 0 49 14 77 30 90 53 95 31
14 -58 -58 -64 -89 -77 -114 -47 -7 8 -18 15 -24 15 -19 0 -106 115 -106 140
0 12 27 14 32 2z m86 -179 c26 -15 82 -17 82 -3 0 6 9 10 20 10 11 0 20 7 20
15 0 8 7 15 15 15 37 0 0 -68 -57 -104 -25 -16 -29 -16 -62 -1 -39 19 -82 78
-70 96 5 9 10 8 18 -2 6 -8 21 -20 34 -26z m-1012 -323 c53 0 41 -23 -26 -49
-70 -28 -103 -56 -155 -131 -41 -59 -73 -89 -92 -90 -18 0 -16 25 2 40 8 7 15
19 15 26 0 8 16 31 35 53 51 57 45 80 -13 44 -39 -25 -145 -104 -157 -117 -19
-22 -82 -66 -94 -66 -23 0 35 63 144 157 60 52 125 102 145 110 37 17 126 33
148 27 8 -2 29 -4 48 -4z m2293 -25 c78 -39 250 -178 251 -203 1 -4 14 -18 30
-32 32 -26 38 -40 18 -40 -7 0 -22 14 -33 30 -11 16 -23 30 -27 30 -4 0 -22
14 -40 30 -18 17 -37 30 -42 30 -5 0 -17 6 -25 14 -23 19 -110 66 -123 66 -7
0 8 -20 32 -45 33 -34 44 -52 42 -70 -2 -14 1 -25 7 -25 6 0 11 -7 11 -15 0
-36 -21 -19 -118 93 -47 55 -112 102 -141 102 -19 0 -81 42 -75 51 3 5 46 9
95 9 75 0 97 -4 138 -25z m-1839 -23 c55 -19 130 -67 190 -121 43 -38 50 -68
10 -43 -16 10 -20 10 -20 -2 0 -8 5 -18 10 -21 6 -3 10 -14 10 -24 0 -10 7
-24 15 -31 8 -7 15 -22 15 -34 0 -12 5 -27 12 -34 33 -33 65 -189 37 -180 -8
3 -15 20 -17 38 -2 19 -10 43 -18 54 -8 11 -14 30 -14 43 0 12 -4 24 -9 27 -5
4 -19 27 -32 54 -39 81 -116 174 -168 202 -29 15 -28 -3 3 -43 35 -47 86 -143
86 -162 0 -22 -24 -13 -29 11 -9 50 -185 234 -204 215 -10 -10 12 -55 56 -112
15 -20 27 -44 27 -52 0 -8 7 -20 15 -27 8 -7 15 -23 15 -35 0 -13 7 -25 15
-29 17 -6 20 -41 5 -51 -5 -3 -12 7 -16 22 -4 15 -12 35 -19 43 -6 8 -15 22
-19 30 -18 39 -33 60 -115 152 -58 66 -83 40 -36 -37 41 -67 95 -180 95 -197
0 -9 7 -18 15 -22 9 -3 15 -18 15 -36 0 -17 7 -38 15 -46 18 -19 20 -67 3 -62
-7 3 -14 17 -16 33 -2 15 -10 34 -18 42 -8 8 -14 25 -14 37 0 13 -7 29 -15 36
-8 7 -15 20 -15 29 0 9 -5 22 -11 28 -12 12 -31 42 -48 78 -19 40 -87 120
-104 123 -25 5 -21 -19 12 -85 41 -84 61 -132 61 -147 0 -8 7 -19 15 -26 8 -7
15 -22 15 -34 0 -12 7 -31 15 -42 8 -10 15 -31 15 -45 0 -15 7 -32 15 -39 19
-15 21 -84 3 -78 -7 3 -15 15 -16 29 -2 13 -10 32 -18 43 -8 11 -14 32 -14 47
0 15 -7 32 -15 39 -8 7 -15 22 -15 34 0 12 -4 26 -9 32 -10 9 -49 79 -82 145
-10 19 -25 41 -33 49 -14 11 -16 9 -16 -14 0 -30 -43 -53 -185 -97 -116 -36
-278 -94 -335 -121 -148 -67 -216 -104 -240 -128 -16 -16 -99 -80 -104 -80
-12 0 -5 30 14 63 12 21 32 38 47 42 15 3 40 16 57 28 41 29 50 35 196 108
109 54 205 92 328 130 36 11 39 17 18 33 -12 9 -2 22 57 74 67 59 100 82 137
97 8 4 26 12 40 18 72 31 100 40 150 47 67 8 121 3 180 -18z m1460 1 c80 -34
218 -120 259 -160 20 -20 22 -25 10 -39 -12 -15 -10 -16 19 -9 28 6 34 4 38
-12 4 -13 30 -27 82 -46 146 -52 462 -222 462 -248 0 -5 4 -9 10 -9 18 0 80
-71 80 -93 0 -22 -30 -108 -56 -160 -8 -16 -14 -37 -14 -47 0 -10 -10 -40 -22
-67 -12 -26 -25 -59 -28 -72 -8 -37 -30 -38 -30 -2 0 20 7 34 21 41 15 9 19
18 15 35 -5 18 -1 27 14 35 14 7 20 21 20 45 0 28 -8 40 -42 68 -24 19 -50 37
-58 40 -8 4 -22 11 -30 15 -15 9 -71 35 -100 46 -8 3 -22 10 -30 15 -45 26
-80 41 -93 41 -9 0 -28 6 -44 14 -15 8 -48 22 -73 31 -25 9 -54 22 -65 28 -11
5 -33 14 -50 18 -34 8 -86 26 -132 46 -17 7 -35 13 -39 13 -23 0 -94 34 -94
46 0 25 19 24 92 -2 40 -15 108 -39 152 -54 43 -16 88 -32 100 -38 11 -5 41
-18 66 -27 25 -10 72 -31 105 -46 33 -16 68 -29 76 -29 9 0 22 -7 29 -15 7 -8
21 -15 31 -15 10 0 21 -5 24 -11 4 -5 17 -15 28 -20 39 -18 119 -69 128 -82 4
-5 15 -7 25 -5 14 2 18 10 16 28 -2 14 -5 25 -5 26 -1 0 -30 22 -64 47 -34 26
-68 47 -77 47 -8 0 -17 4 -20 9 -8 12 -71 41 -231 106 -49 21 -99 41 -110 46
-11 5 -33 13 -50 18 -16 5 -55 19 -85 31 -102 40 -210 71 -232 68 -15 -2 -24
-13 -30 -34 -9 -35 -43 -71 -52 -55 -4 6 0 24 9 40 8 17 15 37 15 45 0 8 14
44 30 81 33 73 37 95 18 95 -14 -1 -91 -101 -108 -141 -10 -24 -16 -36 -39
-74 -6 -11 -16 -32 -22 -47 -6 -16 -15 -25 -20 -22 -14 8 -11 40 6 54 8 7 15
21 15 31 0 31 57 152 97 207 24 32 25 62 3 62 -18 0 -90 -72 -117 -117 -25
-44 -43 -55 -43 -28 0 18 26 72 45 95 7 8 16 25 19 38 13 41 -30 25 -89 -34
-31 -31 -59 -54 -62 -50 -3 3 0 14 8 23 20 24 41 74 34 81 -3 3 -5 0 -5 -6 0
-7 -9 -12 -20 -12 -23 0 -140 -113 -140 -135 0 -7 -6 -18 -14 -22 -8 -4 -15
-17 -17 -27 -2 -11 -10 -21 -16 -24 -19 -6 -16 47 2 54 8 4 15 12 15 20 0 8
-7 14 -15 14 -8 0 -15 -7 -15 -15 0 -8 -5 -15 -10 -15 -6 0 -15 -10 -21 -22
-22 -49 -41 -78 -50 -78 -14 0 -11 27 6 44 8 8 15 20 15 26 0 20 44 75 125
153 82 80 120 104 190 118 55 11 182 1 225 -18z m-300 -180 c0 -14 -19 -38
-25 -32 -8 8 5 39 16 39 5 0 9 -3 9 -7z m-894 -25 c13 -13 24 -31 24 -40 0 -9
4 -19 9 -22 14 -9 51 -90 51 -112 0 -10 7 -28 15 -38 8 -11 15 -38 15 -60 0
-23 7 -50 15 -60 8 -11 15 -41 15 -66 0 -25 7 -55 15 -66 20 -27 20 -248 0
-284 -8 -14 -14 -35 -15 -48 0 -42 -63 -153 -108 -193 -66 -58 -114 -66 -319
-60 -73 3 -88 0 -125 -22 -63 -36 -217 -112 -263 -130 -183 -69 -214 -77 -295
-77 -68 0 -82 4 -130 33 -54 32 -109 97 -110 128 0 9 -7 20 -16 23 -8 3 -12
10 -9 16 4 6 28 -11 56 -38 28 -27 62 -55 77 -62 15 -7 34 -16 43 -20 32 -16
85 -21 129 -11 97 21 136 33 180 55 25 13 73 33 108 44 34 12 71 27 82 32 11
6 28 14 38 19 86 42 122 65 127 82 8 25 18 24 30 -3 6 -12 15 -23 22 -25 19
-7 123 113 123 141 0 9 7 19 15 22 8 4 15 19 15 34 0 33 15 48 24 24 4 -9 0
-27 -9 -40 -8 -13 -15 -36 -15 -52 0 -15 -5 -33 -12 -40 -14 -14 -38 -80 -38
-105 0 -17 1 -17 16 -3 8 9 24 16 35 16 24 0 71 32 121 83 36 35 58 47 58 30
0 -5 -18 -28 -40 -52 -22 -24 -38 -46 -35 -49 7 -8 68 20 94 42 37 33 101 135
101 162 0 14 7 27 15 30 12 5 15 29 15 130 0 88 -4 135 -15 161 -8 19 -15 56
-15 82 0 25 -7 55 -15 65 -8 11 -15 39 -15 62 0 25 -6 47 -15 54 -8 7 -15 18
-15 24 0 10 -36 89 -76 168 -24 45 -15 51 22 16z m-2709 -84 c-3 -30 -2 -56 1
-58 8 -5 135 24 348 78 70 18 200 21 241 5 15 -6 51 -15 78 -19 28 -5 82 -16
120 -24 39 -8 86 -16 105 -16 l35 -1 -28 -24 c-15 -14 -34 -25 -42 -25 -7 0
-40 -13 -73 -30 -34 -16 -64 -30 -67 -30 -31 0 -204 -107 -205 -127 0 -12 -73
-75 -100 -86 -8 -4 -22 -11 -30 -16 -8 -5 -22 -12 -30 -15 -8 -3 -23 -11 -32
-18 -14 -10 -20 -10 -29 -1 -10 10 -7 15 12 23 13 6 38 19 54 30 17 11 37 23
45 27 30 14 80 55 75 63 -7 11 -36 1 -135 -47 -47 -22 -110 -48 -140 -58 -53
-16 -70 -23 -191 -79 -31 -14 -61 -26 -67 -26 -17 0 -5 24 18 35 11 6 58 34
106 63 47 28 89 52 94 52 5 0 15 6 22 13 7 7 24 18 38 24 l25 12 -27 0 c-15 1
-30 -3 -33 -9 -3 -5 -15 -10 -25 -10 -11 0 -34 -6 -52 -14 -18 -8 -40 -17 -48
-20 -8 -3 -22 -10 -30 -15 -8 -4 -46 -23 -85 -42 -38 -18 -84 -44 -102 -57
-18 -13 -39 -22 -48 -20 -15 3 -14 6 4 30 23 29 155 131 184 141 24 9 21 27
-4 27 -36 0 -200 -88 -280 -151 -20 -16 -42 -29 -48 -29 -27 0 -6 36 60 101
39 39 68 73 64 77 -10 10 -121 -54 -205 -118 -44 -33 -99 -65 -130 -75 -78
-25 -107 -41 -180 -101 -97 -78 -180 -165 -194 -199 -5 -13 -10 -15 -17 -8
-11 11 26 96 80 183 11 19 24 42 28 50 11 26 134 174 153 185 23 13 120 97
176 153 58 57 120 98 234 153 105 51 146 67 203 79 21 4 43 12 49 18 21 21 31
-1 25 -54z m1691 54 c-3 -7 -14 -14 -26 -16 -11 -2 -26 -10 -32 -18 -7 -8 -21
-14 -31 -14 -10 0 -20 -4 -24 -9 -3 -6 -27 -20 -53 -33 -26 -13 -49 -26 -52
-30 -3 -4 -17 -12 -30 -18 -43 -19 -70 -37 -99 -64 -26 -25 -51 -34 -51 -18 1
10 37 52 45 52 4 0 24 14 45 30 21 17 45 30 53 30 9 0 19 5 22 11 4 5 17 15
28 20 12 5 36 18 52 29 17 11 37 22 45 25 8 4 26 12 40 20 33 17 73 19 68 3z
m1882 3 c0 -17 -12 -41 -21 -41 -10 0 -12 33 -2 43 9 10 23 9 23 -2z m896 -6
c10 -8 27 -15 37 -15 10 0 29 -7 42 -16 14 -9 33 -13 45 -9 14 5 20 2 20 -9 0
-9 4 -16 10 -16 5 0 17 -8 27 -18 10 -10 39 -35 66 -55 26 -21 47 -45 47 -53
0 -8 5 -14 12 -14 6 0 9 -2 6 -5 -6 -7 -41 13 -120 67 -64 43 -203 118 -237
127 -14 4 -26 12 -29 19 -5 17 50 15 74 -3z m1724 -20 c111 -47 196 -86 235
-109 30 -17 79 -50 85 -56 3 -3 25 -21 50 -40 84 -64 245 -207 300 -267 73
-78 85 -94 116 -151 14 -26 36 -67 50 -91 13 -24 24 -53 24 -63 0 -10 7 -21
15 -24 17 -7 21 -44 5 -44 -6 0 -14 8 -17 17 -10 26 -29 47 -176 195 -98 98
-143 137 -155 134 -9 -3 -30 1 -47 10 -16 9 -48 16 -71 15 -33 0 -49 7 -90 42
-54 47 -145 107 -161 107 -6 0 -16 7 -23 15 -14 17 -30 20 -30 5 0 -6 8 -14
17 -17 31 -12 121 -119 123 -145 0 -18 -38 -6 -66 20 -51 49 -170 122 -199
122 -7 0 -18 7 -25 15 -14 17 -40 20 -40 5 0 -6 6 -13 14 -16 20 -8 140 -130
155 -158 26 -48 4 -43 -76 17 -78 59 -117 82 -206 120 -40 18 -77 22 -77 10 0
-5 27 -21 59 -37 91 -44 201 -136 163 -136 -4 0 -43 18 -87 41 -91 46 -172 79
-197 79 -17 0 -34 6 -158 62 -84 38 -115 52 -170 74 -25 10 -50 21 -56 26 -39
28 -200 108 -219 108 -8 0 -33 9 -55 21 -41 22 -45 45 -6 35 22 -5 187 17 204
28 6 3 32 -1 58 -9 55 -17 114 -20 114 -6 0 13 -26 21 -66 21 -39 0 -46 17 -9
26 52 13 338 -18 375 -41 6 -4 35 -10 63 -15 29 -4 73 -13 98 -20 66 -19 79
-11 66 38 -11 43 -4 77 16 69 6 -3 41 -17 77 -32z m-2500 1 c0 -16 -18 -31
-27 -22 -8 8 5 36 17 36 5 0 10 -6 10 -14z m-1589 -59 c-6 -8 -44 -25 -84 -37
-128 -40 -276 -90 -294 -99 -10 -5 -58 -26 -108 -46 -119 -48 -137 -56 -155
-66 -8 -5 -25 -13 -38 -19 -33 -14 -124 -74 -150 -99 -24 -24 -42 -20 -42 9 0
13 16 26 50 42 28 13 50 26 50 31 0 4 10 12 23 17 12 6 36 19 52 29 42 27 101
56 163 80 29 12 71 30 94 42 53 27 180 74 293 107 50 15 99 33 110 39 27 16
55 -8 36 -30z m1429 -4 c0 -21 -3 -24 -9 -14 -5 8 -7 20 -4 28 8 21 13 15 13
-14z m130 -3 c0 -19 -17 -36 -27 -26 -3 3 -2 17 1 31 7 28 26 25 26 -5z
m-1082 -18 c2 -18 -1 -32 -6 -32 -12 0 -22 24 -22 52 0 32 25 15 28 -20z m837
-2 c-5 -15 -10 -19 -17 -12 -5 5 -7 20 -3 32 5 15 10 19 17 12 5 -5 7 -20 3
-32z m-90 -17 c-8 -32 -13 -39 -21 -30 -10 9 5 57 17 57 7 0 9 -10 4 -27z
m-1200 -23 c15 -24 -7 -47 -53 -59 -74 -19 -103 -28 -162 -51 -30 -11 -87 -32
-126 -45 -40 -13 -80 -28 -90 -33 -11 -6 -39 -18 -64 -27 -101 -38 -198 -83
-205 -96 -4 -5 -13 -9 -22 -9 -8 0 -38 -18 -65 -40 -52 -41 -68 -43 -68 -9 0
14 7 19 25 19 14 0 25 5 25 10 0 6 10 15 23 20 12 6 36 19 52 30 17 11 37 22
45 26 8 3 22 9 30 14 8 5 35 19 60 30 25 12 57 28 72 36 14 8 32 14 39 14 6 0
35 11 64 24 54 26 120 52 170 66 70 20 211 72 220 81 12 12 22 12 30 -1z m363
-29 c3 -24 0 -32 -10 -29 -7 3 -14 19 -16 37 -3 24 0 32 10 29 7 -3 14 -19 16
-37z m1132 7 c0 -23 -3 -29 -9 -19 -8 12 -4 51 5 51 2 0 4 -15 4 -32z m-1016
6 c9 -23 7 -54 -3 -54 -11 0 -21 25 -21 51 0 23 15 25 24 3z m785 -1 c0 -10
-4 -27 -8 -37 -11 -28 -25 -2 -17 30 7 28 26 33 25 7z m-89 -22 c0 -26 -10
-51 -21 -51 -10 0 -12 31 -3 54 9 22 24 20 24 -3z m536 -37 c-5 -13 -10 -14
-18 -6 -6 6 -8 18 -4 28 5 13 10 14 18 6 6 -6 8 -18 4 -28z m-1673 -15 c5 -19
13 -38 18 -43 5 -6 9 -20 9 -33 0 -12 7 -38 16 -57 17 -34 13 -73 -6 -61 -5 3
-10 19 -10 35 0 15 -7 30 -15 34 -9 3 -15 18 -15 34 0 16 -6 34 -13 40 -15 13
-70 6 -75 -8 -4 -12 -89 -50 -109 -50 -8 0 -27 -6 -41 -14 -38 -19 -126 -46
-150 -46 -11 0 -22 -7 -26 -15 -3 -8 -11 -15 -18 -15 -15 0 -125 -44 -135 -54
-3 -3 -14 -6 -22 -6 -9 0 -43 -13 -74 -30 -59 -31 -97 -38 -97 -20 0 6 11 15
24 20 13 5 27 14 31 19 3 6 19 11 35 11 15 0 30 7 34 15 3 8 14 15 24 15 10 0
27 7 38 15 10 8 26 15 34 15 8 0 28 7 44 15 15 8 34 15 41 15 8 0 26 6 42 14
87 42 205 89 268 106 17 4 37 10 45 13 8 3 27 8 43 11 22 5 27 12 27 37 0 41
21 33 33 -12z m351 5 c3 -9 6 -27 6 -41 0 -39 -25 -22 -28 20 -3 37 11 50 22
21z m956 -16 c0 -23 -3 -29 -11 -21 -6 6 -8 20 -4 32 9 30 15 26 15 -11z
m-835 -45 c-7 -17 -8 -16 -17 4 -6 12 -7 30 -3 40 7 17 8 16 17 -4 6 -12 7
-30 3 -40z m1330 47 c3 -5 14 -10 24 -10 10 0 32 -7 47 -15 16 -8 37 -15 46
-15 10 0 34 -7 55 -16 65 -29 97 -42 143 -59 25 -10 57 -23 72 -31 14 -8 33
-14 41 -14 8 0 20 -7 27 -15 7 -8 23 -15 35 -15 12 0 28 -7 35 -15 7 -8 20
-15 30 -15 10 0 23 -7 30 -15 7 -8 20 -15 30 -15 10 0 23 -7 30 -15 7 -8 20
-15 30 -15 10 0 23 -7 30 -15 7 -8 18 -15 24 -15 10 -1 53 -50 43 -50 -10 0
-67 32 -72 41 -4 5 -14 9 -24 9 -10 0 -24 7 -31 15 -7 8 -20 15 -30 15 -10 0
-23 7 -30 15 -7 8 -22 15 -34 15 -11 0 -30 7 -40 15 -11 8 -27 15 -37 15 -9 0
-22 7 -29 15 -7 8 -21 15 -30 15 -10 0 -31 6 -47 14 -48 25 -100 46 -115 46
-7 0 -22 7 -32 15 -11 8 -27 15 -37 15 -9 0 -30 7 -45 15 -16 8 -36 15 -44 15
-8 0 -24 7 -34 15 -11 8 -31 15 -46 15 -27 0 -70 25 -70 41 0 12 47 12 55 -1z
m-616 -42 c0 -31 -3 -37 -8 -24 -7 18 -3 66 5 66 2 0 4 -19 3 -42z m-79 -3 c0
-32 -10 -56 -21 -49 -10 6 -12 45 -3 68 8 22 24 10 24 -19z m538 3 c-3 -34
-20 -42 -26 -13 -5 22 5 45 18 45 7 0 10 -14 8 -32z m-1053 -48 c1 -28 -2 -50
-6 -50 -9 0 -20 90 -13 102 11 17 18 -2 19 -52z m-334 -17 c-9 -15 -10 -12
-10 17 0 29 1 32 10 18 7 -12 7 -24 0 -35z m121 -11 l-5 -26 -9 24 c-10 28 -2
62 11 42 4 -8 6 -25 3 -40z m1348 6 c0 -23 -3 -29 -9 -19 -8 12 -4 51 5 51 2
0 4 -15 4 -32z m-1229 -50 c-8 -22 -9 -21 -15 9 -9 40 3 67 15 35 5 -12 5 -32
0 -44z m1109 30 c0 -21 -3 -29 -10 -22 -5 5 -7 19 -4 32 9 31 14 27 14 -10z
m-2766 -20 c9 -12 16 -33 16 -47 0 -25 92 -312 110 -343 6 -10 10 -23 10 -29
0 -6 6 -25 14 -42 7 -18 24 -57 36 -87 12 -30 53 -119 92 -197 38 -78 68 -147
66 -153 -4 -13 -306 -121 -373 -133 -16 -3 -38 -9 -49 -13 -18 -7 -18 -6 -2
18 9 14 27 28 39 31 12 3 47 15 77 26 30 12 87 33 126 46 85 28 114 44 114 64
0 8 -31 79 -70 157 -38 79 -70 148 -70 154 0 11 -12 41 -45 115 -7 17 -23 57
-34 90 -11 33 -29 85 -41 115 -67 176 -80 227 -63 243 12 13 32 7 47 -15z
m3029 10 c12 -6 38 -15 57 -19 43 -9 96 -27 132 -45 14 -8 32 -14 40 -14 8 0
41 -13 73 -30 32 -16 69 -30 81 -30 12 0 24 -6 27 -14 3 -8 18 -16 33 -18 15
-2 29 -9 32 -15 5 -18 -40 -16 -64 2 -10 8 -29 15 -40 15 -12 0 -27 7 -34 15
-7 8 -25 15 -40 15 -15 0 -33 7 -40 15 -7 8 -24 15 -39 15 -14 0 -35 7 -45 15
-11 8 -30 15 -43 15 -13 0 -26 7 -29 15 -4 9 -19 15 -39 15 -18 0 -38 7 -45
15 -7 8 -25 15 -40 15 -37 0 -61 10 -54 21 7 13 51 11 77 -3z m1627 -3 c7 -8
23 -15 35 -15 12 0 28 -6 35 -14 6 -8 21 -16 33 -18 12 -2 21 -7 20 -13 -4
-17 -39 -17 -53 0 -7 8 -20 15 -30 15 -10 0 -23 6 -30 14 -6 8 -21 16 -32 18
-12 2 -23 9 -26 16 -5 17 33 15 48 -3z m-4530 -14 c5 -11 10 -30 10 -43 1 -13
11 -52 24 -88 13 -36 36 -99 51 -140 14 -41 31 -79 36 -84 5 -6 9 -19 9 -29 0
-10 6 -31 13 -45 8 -15 21 -43 29 -62 109 -258 191 -397 239 -407 62 -12 16
-59 -91 -93 -14 -5 -50 -18 -80 -30 -141 -55 -361 -121 -422 -126 l-67 -7 -64
61 c-35 34 -73 81 -86 104 -12 24 -32 61 -44 83 -21 38 -38 76 -79 175 -10 25
-23 53 -28 62 -6 10 -10 23 -10 29 0 6 -6 25 -14 42 -14 32 -62 176 -91 277
-9 31 -15 74 -13 95 3 35 6 40 28 40 24 0 25 -4 31 -70 3 -38 11 -86 17 -105
6 -19 19 -62 28 -95 9 -33 22 -77 30 -97 8 -21 21 -57 30 -80 8 -24 22 -56 30
-71 8 -16 14 -33 14 -39 0 -5 23 -56 52 -114 53 -107 132 -205 182 -224 14 -5
45 -6 73 -1 52 9 483 149 497 162 7 6 -38 92 -94 179 -5 8 -24 44 -41 80 -28
60 -44 95 -85 190 -9 19 -22 48 -30 63 -8 16 -14 33 -14 39 0 5 -6 24 -14 41
-7 18 -28 73 -45 122 -18 50 -39 108 -47 130 -15 44 -18 78 -7 88 12 13 32 7
43 -12z m1204 3 c7 -19 -2 -37 -15 -29 -12 8 -12 45 0 45 5 0 12 -7 15 -16z
m2794 -18 c4 -31 -14 -89 -74 -248 -9 -24 -23 -61 -31 -83 -9 -22 -21 -53 -28
-70 -7 -16 -21 -50 -30 -75 -10 -25 -24 -59 -31 -77 -8 -17 -14 -34 -14 -38 0
-4 -27 -61 -60 -127 -33 -67 -60 -122 -60 -124 0 -9 213 -101 244 -106 11 -2
21 -9 24 -15 5 -18 -50 -16 -112 3 -102 33 -205 73 -219 84 -5 4 5 31 22 61
56 100 97 191 148 324 15 38 27 68 52 125 15 36 41 110 50 145 5 17 13 41 19
55 17 43 42 136 42 158 0 21 26 44 45 38 6 -1 11 -15 13 -30z m-1889 -144 c0
-157 5 -189 42 -252 5 -8 13 -24 18 -35 25 -52 126 -134 144 -116 7 7 6 12 -6
17 -9 3 -17 12 -17 20 0 8 -4 14 -10 14 -12 0 -45 69 -36 77 3 3 6 2 6 -4 0
-13 83 -103 96 -103 5 0 32 -11 59 -25 28 -13 56 -25 63 -25 18 0 15 30 -8 75
-25 49 -28 94 -5 75 8 -7 15 -20 15 -30 0 -21 86 -103 103 -97 7 2 14 23 17
48 6 52 24 55 28 4 2 -26 12 -41 36 -60 18 -14 39 -25 45 -25 7 0 25 -6 39
-14 48 -25 232 -106 241 -106 5 0 22 -7 37 -15 16 -8 38 -15 49 -15 12 0 26
-5 31 -10 6 -6 40 -13 77 -17 55 -5 77 -2 127 17 63 24 154 99 161 134 2 9 8
17 14 17 16 1 17 -18 0 -34 -8 -9 -15 -22 -15 -29 0 -26 -88 -114 -141 -142
-48 -25 -62 -27 -124 -23 -62 3 -155 28 -305 82 -25 9 -94 40 -155 69 l-110
54 -138 6 c-76 4 -146 11 -155 16 -9 5 -29 11 -44 14 -30 7 -135 98 -149 130
-5 12 -13 28 -18 36 -36 61 -41 93 -41 243 0 84 3 162 6 174 14 53 22 2 23
-145z m1751 153 c13 -16 11 -27 -42 -175 -34 -96 -55 -151 -73 -195 -7 -16
-21 -50 -30 -75 -10 -25 -24 -61 -33 -80 -8 -19 -21 -48 -28 -65 -46 -109 -90
-188 -134 -243 -28 -35 -49 -70 -47 -77 3 -7 18 -15 34 -18 15 -2 44 -10 63
-17 101 -36 138 -48 260 -83 30 -9 78 -23 107 -32 28 -8 70 -15 92 -15 35 0
46 7 96 56 70 70 92 105 140 219 20 50 43 104 50 120 21 49 61 161 77 215 21
74 47 207 48 242 0 67 22 89 48 47 15 -23 5 -103 -24 -203 -8 -26 -14 -54 -14
-61 0 -7 -7 -26 -15 -41 -8 -16 -15 -39 -15 -51 0 -12 -4 -24 -9 -28 -5 -3
-13 -20 -17 -38 -3 -17 -12 -45 -19 -62 -7 -16 -21 -50 -30 -75 -50 -132 -122
-255 -189 -327 l-68 -73 -65 0 c-35 0 -74 5 -86 12 -12 6 -38 15 -57 19 -19 4
-51 13 -70 19 -19 7 -51 18 -70 25 -19 7 -51 18 -70 25 -19 7 -55 16 -80 20
-68 12 -198 63 -212 84 -14 20 -8 36 11 36 36 0 190 196 191 243 0 7 7 21 15
31 8 11 15 28 15 37 0 10 6 30 14 46 8 15 22 48 31 73 18 47 22 56 52 130 10
25 27 72 37 105 17 54 47 142 75 218 12 30 23 34 41 12z m-3010 -15 c-19 -13
-30 -13 -30 0 0 6 10 10 23 10 18 0 19 -2 7 -10z m808 -100 c-2 -19 -7 -35
-13 -35 -14 0 -18 50 -9 104 l7 46 9 -40 c5 -22 8 -56 6 -75z m-214 43 l-7
-28 -9 30 c-4 17 -5 37 -2 45 10 26 26 -16 18 -47z m-1679 13 c0 -38 -28 -52
-233 -117 -76 -24 -106 -29 -114 -21 -25 25 59 79 177 112 41 11 136 48 143
55 13 12 27 -3 27 -29z m1045 25 c0 -11 -25 -21 -56 -21 -23 0 -31 10 -17 23
10 10 73 8 73 -2z m3326 -22 c32 -11 73 -24 89 -29 74 -21 189 -68 193 -78 2
-6 -6 -16 -18 -22 -16 -9 -36 -8 -88 5 -37 9 -71 20 -77 24 -5 4 -45 18 -88
32 -61 19 -79 28 -83 46 -5 19 1 43 10 43 2 0 29 -9 62 -21z m-3416 -8 c0 -11
-25 -21 -50 -21 -10 0 -20 -7 -24 -15 -3 -8 -16 -15 -29 -15 -14 0 -30 -7 -37
-15 -15 -18 -74 -21 -68 -2 3 6 16 13 31 15 14 2 31 10 37 18 7 8 23 14 37 14
13 0 31 7 39 15 17 16 64 21 64 6z m280 -6 c0 -8 -9 -15 -20 -15 -20 0 -26 11
-13 23 12 13 33 7 33 -8z m1854 0 c8 -8 28 -15 44 -15 16 0 35 -7 42 -15 11
-13 8 -15 -17 -15 -16 0 -38 7 -49 15 -10 8 -31 15 -46 15 -18 0 -28 5 -28 15
0 8 9 15 19 15 11 0 26 -7 35 -15z m-1622 -37 c-13 -13 -26 8 -17 30 6 16 7
16 17 -1 7 -13 7 -22 0 -29z m-312 13 c0 -12 -26 -21 -60 -21 -15 0 -33 -7
-40 -15 -7 -8 -25 -15 -41 -15 -16 0 -29 -4 -29 -10 0 -5 -11 -12 -25 -16 -13
-3 -29 -12 -36 -20 -13 -16 -59 -19 -59 -4 0 5 12 13 27 16 15 4 34 13 41 21
7 7 22 13 32 13 10 0 20 7 24 15 3 9 18 15 36 15 17 0 38 7 46 15 16 16 84 21
84 6z m645 -21 c-5 -8 -11 -8 -17 -2 -6 6 -7 16 -3 22 5 8 11 8 17 2 6 -6 7
-16 3 -22z m1459 -15 c8 -8 29 -15 46 -15 18 0 33 -6 36 -15 4 -8 14 -15 24
-15 25 0 50 -10 50 -21 0 -15 -47 -10 -60 6 -7 8 -25 15 -41 15 -15 0 -34 6
-42 14 -8 8 -27 16 -42 18 -16 2 -30 9 -33 16 -5 17 43 15 62 -3z m-3224 -28
c0 -19 -78 -55 -165 -76 -17 -4 -39 -12 -50 -18 -11 -5 -35 -17 -53 -26 -48
-24 -74 -22 -70 4 2 12 10 25 18 29 50 25 111 50 154 65 27 9 57 20 65 25 26
15 101 12 101 -3z m460 4 c0 -12 -20 -25 -27 -18 -7 7 6 27 18 27 5 0 9 -4 9
-9z m238 -3 c-3 -7 -15 -15 -29 -16 -13 -2 -28 -10 -32 -18 -10 -18 -60 -19
-55 -1 3 6 14 13 26 15 11 2 26 10 32 18 15 18 63 19 58 2z m3662 -17 c30 -12
82 -31 115 -42 60 -21 100 -53 89 -71 -8 -12 -31 -7 -104 22 -30 12 -66 25
-80 30 -119 42 -156 62 -144 82 9 13 58 5 124 -21z m-3950 -26 c0 -3 -9 -5
-20 -5 -15 0 -20 7 -20 25 0 25 0 25 20 5 11 -11 20 -22 20 -25z m3219 16 c8
-5 9 -11 3 -15 -13 -8 -42 3 -42 15 0 11 21 11 39 0z m-4834 -32 c22 -6 56
-14 75 -19 47 -11 113 -36 158 -59 63 -32 185 -61 255 -61 36 0 69 -4 72 -10
3 -5 10 -44 15 -87 6 -43 13 -90 16 -105 5 -23 2 -29 -20 -39 -35 -16 -33 -29
4 -29 17 0 30 -5 30 -12 0 -17 -31 -48 -48 -48 -7 0 -28 -6 -45 -14 -43 -19
-272 -95 -322 -106 -22 -5 -78 -19 -125 -30 -47 -12 -105 -25 -130 -30 -47 -9
-102 -21 -210 -47 -39 -10 -126 -17 -220 -19 -85 -2 -184 -7 -220 -12 -42 -6
-73 -6 -87 1 -16 7 -27 6 -37 -2 -8 -7 -37 -11 -66 -10 -60 3 -70 -6 -70 -67
0 -154 175 -243 356 -182 17 6 43 8 57 4 24 -6 26 -9 14 -27 -24 -39 -91 -59
-198 -59 -80 0 -106 4 -139 21 -46 24 -86 72 -120 142 -20 43 -22 59 -18 135
4 54 13 102 24 127 25 54 95 146 142 187 22 18 56 58 77 88 137 199 264 303
440 361 59 20 276 25 340 8z m1765 2 c0 -6 -5 -13 -10 -16 -15 -9 -43 3 -35
15 8 13 45 13 45 1z m260 0 c0 -12 -28 -22 -34 -12 -3 5 -3 11 1 15 9 9 33 7
33 -3z m260 -1 c0 -5 -12 -10 -27 -10 -22 0 -25 2 -13 10 20 13 40 13 40 0z
m2360 0 c12 -8 12 -10 -3 -16 -20 -7 -47 1 -47 16 0 12 30 13 50 0z m251 -5
c-1 -15 -24 -12 -29 3 -3 9 2 13 12 10 10 -1 17 -7 17 -13z m2083 -5 c72 -24
175 -81 223 -123 38 -34 145 -171 156 -200 4 -10 11 -15 17 -12 15 9 12 42 -5
49 -18 7 -21 50 -2 44 6 -3 14 -13 16 -24 2 -10 9 -23 17 -27 8 -4 14 -12 14
-18 0 -10 83 -122 120 -161 36 -39 108 -151 126 -198 9 -25 19 -76 21 -115 3
-57 0 -79 -17 -115 -59 -123 -92 -156 -166 -166 -57 -7 -225 4 -234 15 -3 3
-19 15 -35 27 -28 19 -70 32 -220 64 -27 6 -66 15 -85 20 -19 5 -57 14 -85 20
-27 6 -72 18 -100 25 -27 8 -68 18 -90 24 -22 6 -76 20 -120 32 -72 20 -130
38 -445 141 -96 31 -130 50 -130 75 0 17 40 17 82 -1 54 -23 109 -43 168 -60
30 -9 97 -30 148 -46 51 -17 98 -30 106 -30 8 0 27 -7 42 -15 16 -8 36 -15 45
-15 9 0 53 -13 99 -30 46 -16 91 -30 100 -30 10 0 31 -7 46 -15 16 -8 41 -15
56 -15 15 0 42 -6 60 -14 56 -24 143 -46 180 -46 20 0 41 -6 47 -14 6 -8 28
-17 49 -20 120 -21 156 -24 243 -25 l96 -1 36 36 c19 20 43 51 51 69 21 44 21
148 0 169 -17 18 -30 20 -38 7 -3 -5 -23 -11 -43 -13 -28 -3 -41 0 -53 14 -13
17 -19 18 -45 8 -18 -7 -46 -9 -70 -4 -22 4 -114 8 -205 9 -116 1 -186 6 -235
18 -77 19 -161 38 -275 62 -41 8 -97 22 -125 29 -134 38 -172 49 -200 61 -16
7 -39 15 -50 18 -11 3 -45 15 -75 27 -30 12 -64 24 -76 27 -11 3 -34 15 -50
29 -27 22 -28 23 -7 24 12 0 45 -5 72 -11 34 -7 56 -7 68 0 15 8 11 11 -25 17
-23 4 -45 10 -48 15 -3 5 -22 13 -44 19 -47 13 -56 34 -35 83 8 20 15 61 15
91 0 30 4 57 8 60 5 3 35 8 68 11 103 10 260 48 298 73 100 64 413 94 540 52z
m-1474 -25 c55 -20 122 -47 155 -60 17 -7 40 -16 53 -20 16 -4 22 -14 22 -34
0 -15 -3 -30 -6 -33 -3 -4 -27 4 -52 17 -50 25 -211 85 -228 85 -19 0 -47 39
-40 55 6 17 32 14 96 -10z m-4286 -2 c10 -25 -10 -37 -114 -73 -52 -17 -115
-41 -138 -52 -40 -19 -45 -19 -59 -5 -18 18 -11 45 14 53 10 4 46 19 81 35 34
16 68 29 75 29 6 1 23 7 37 15 36 20 96 19 104 -2z m405 -25 c1 -5 -3 -8 -9
-8 -5 0 -10 12 -9 28 0 24 1 25 9 7 5 -11 9 -23 9 -27z m1436 -17 c-10 -27
-28 5 -20 36 l7 28 9 -24 c6 -14 7 -31 4 -40z m1380 53 c12 -5 14 -9 4 -14
-15 -10 -41 -1 -33 11 6 11 8 11 29 3z m1570 -24 c9 -27 -9 -122 -52 -270 -41
-145 -145 -385 -216 -496 -50 -79 -107 -144 -128 -144 -39 0 -30 28 31 102 38
45 79 110 107 168 25 52 51 107 59 122 20 38 134 386 134 410 0 11 7 44 16 74
16 55 37 70 49 34z m-5329 -55 c6 -27 16 -72 22 -100 15 -74 44 -166 71 -230
5 -11 16 -40 26 -65 52 -138 131 -292 188 -368 26 -35 47 -67 47 -73 0 -5 -11
-9 -24 -9 -41 0 -138 146 -210 315 -7 17 -20 46 -29 65 -61 135 -119 320 -152
488 -7 32 -6 33 22 30 25 -3 29 -9 39 -53z m572 -35 c3 -23 -3 -27 -60 -43
-35 -11 -76 -25 -93 -32 -65 -27 -111 -50 -128 -65 -17 -13 -20 -13 -33 5 -26
35 -11 75 28 75 9 0 34 7 55 16 21 9 52 22 68 29 17 7 46 19 65 28 19 9 49 15
65 14 24 -2 31 -7 33 -27z m2592 -8 c0 -15 -4 -33 -9 -40 -11 -18 -24 32 -16
59 9 26 25 14 25 -19z m1666 7 c184 -72 189 -74 192 -102 4 -32 -4 -33 -66 -8
-74 30 -204 77 -234 85 -21 5 -28 12 -28 31 0 35 37 33 136 -6z m-533 -46 c-8
-21 -22 -5 -16 18 4 15 8 17 13 8 5 -7 6 -18 3 -26z m-3691 -27 c17 -24 6 -42
-35 -58 -23 -10 -48 -18 -55 -18 -11 0 -117 -45 -175 -75 -38 -20 -50 -19 -65
6 -19 29 6 54 72 73 28 9 69 24 91 36 21 11 44 20 51 20 6 0 17 6 24 14 20 25
76 26 92 2z m4143 -1 c17 -7 68 -27 115 -45 137 -50 154 -63 131 -99 -8 -12
-16 -11 -53 6 -24 12 -63 26 -87 33 -24 6 -51 15 -60 20 -43 21 -93 40 -107
40 -19 0 -35 41 -21 58 10 13 32 10 82 -13z m-2545 -23 c0 -13 -12 -22 -22
-16 -10 6 -1 24 13 24 5 0 9 -4 9 -8z m-1550 -91 c0 -16 -70 -51 -102 -51 -9
0 -19 -4 -23 -10 -3 -5 -20 -14 -38 -19 -61 -18 -105 -37 -120 -50 -24 -19
-57 -5 -57 25 0 25 8 30 110 69 25 9 57 23 72 31 14 8 34 14 45 14 10 1 34 9
53 20 32 17 36 17 48 2 6 -8 12 -23 12 -31z m4057 20 c10 -5 56 -23 103 -40
146 -54 170 -70 150 -101 -8 -12 -18 -11 -72 9 -35 12 -76 26 -93 31 -16 4
-52 17 -80 28 -121 47 -116 42 -90 79 16 23 30 22 82 -6z m-4029 -83 c17 -17
15 -48 -3 -48 -8 0 -23 -4 -33 -10 -9 -5 -55 -25 -102 -43 -160 -65 -200 -70
-200 -27 0 14 11 25 35 35 19 8 51 22 70 30 20 8 42 15 50 15 15 0 72 23 115
46 31 17 53 17 68 2z m3999 -18 c34 -16 71 -30 81 -30 10 0 22 -4 28 -9 5 -5
34 -16 65 -25 71 -20 89 -39 64 -66 -20 -23 -36 -25 -52 -9 -6 6 -68 30 -137
54 -154 52 -178 69 -144 103 17 17 23 16 95 -18z m-3946 -81 c19 -37 3 -45
-224 -124 -86 -29 -99 -31 -112 -18 -8 8 -15 18 -15 22 0 12 53 47 80 53 31 7
89 28 114 40 19 10 125 46 138 47 4 1 12 -9 19 -20z m1978 -36 c39 -26 67 -51
63 -54 -4 -4 -67 -10 -139 -14 -115 -6 -133 -5 -133 8 0 9 15 25 33 36 18 11
46 31 62 45 17 14 33 26 37 26 4 0 39 -21 77 -47z m1908 27 c56 -27 121 -50
169 -60 52 -11 94 -30 94 -43 0 -18 -32 -47 -53 -47 -10 0 -31 6 -45 14 -15 8
-47 22 -72 31 -25 9 -57 23 -72 31 -14 8 -32 14 -40 14 -22 0 -61 47 -55 64 8
21 25 20 74 -4z m-4640 -46 c3 -8 1 -20 -5 -26 -13 -13 -70 -35 -122 -48 -69
-17 -140 -39 -152 -46 -7 -4 -30 -11 -53 -15 -22 -5 -112 -26 -200 -48 -252
-63 -288 -71 -322 -71 -17 0 -35 -4 -38 -10 -3 -5 -21 -10 -38 -10 l-32 0 40
25 c22 13 48 25 58 25 11 0 33 6 50 13 18 8 59 22 92 32 33 9 78 23 100 30 56
17 139 41 210 61 76 21 152 44 190 58 113 42 212 55 222 30z m5405 7 c13 -5
61 -19 108 -31 47 -12 103 -28 125 -35 22 -7 67 -21 100 -30 33 -10 74 -24 90
-31 17 -7 57 -20 90 -30 33 -9 74 -23 92 -31 17 -7 42 -13 55 -13 12 -1 34 -7
48 -15 14 -8 36 -15 50 -15 14 -1 45 -12 70 -26 l45 -25 -40 6 c-133 19 -207
34 -330 70 -33 10 -85 23 -115 31 -30 7 -82 21 -115 29 -33 9 -82 22 -110 29
-125 32 -245 88 -245 113 0 15 47 18 82 4z m-832 -36 c7 -8 16 -15 21 -15 5 0
37 -13 72 -29 60 -28 121 -53 161 -65 15 -5 16 -9 6 -21 -12 -15 -43 -13 -85
5 -11 5 -36 15 -55 23 -137 58 -160 71 -160 87 0 31 20 39 40 15z m-3780 -25
c0 -11 -88 -52 -225 -105 -49 -19 -74 -24 -85 -18 -23 15 -18 36 10 44 14 4
50 17 80 29 30 11 82 30 115 41 33 11 64 25 69 30 10 9 36 -7 36 -21z m-760
-33 c0 -26 -35 -45 -135 -77 -55 -17 -113 -37 -130 -44 -16 -7 -57 -21 -90
-30 -33 -10 -73 -22 -90 -28 -16 -5 -41 -12 -55 -14 -14 -3 -47 -11 -75 -19
-27 -8 -86 -22 -130 -31 -75 -15 -117 -25 -225 -54 -160 -44 -270 -60 -270
-41 0 10 9 13 70 24 14 3 41 10 60 17 75 26 96 32 135 41 22 5 49 13 60 18 24
10 105 33 195 56 90 22 168 45 210 60 19 7 51 18 70 25 19 6 51 16 70 20 19 4
50 13 68 19 82 28 99 33 128 40 17 5 39 13 50 19 27 16 84 15 84 -1z m2396
-142 c4 -8 -6 -26 -23 -42 -16 -15 -45 -48 -63 -72 l-34 -44 3 -226 c1 -124 5
-229 8 -235 10 -15 384 0 395 16 4 7 7 115 6 239 l-3 227 -59 62 c-87 91 -90
90 243 82 331 -8 329 -8 236 -102 l-60 -61 -7 -92 c-3 -51 -7 -164 -7 -252
l-1 -161 41 -39 c22 -22 50 -52 60 -67 l20 -28 -23 -9 c-13 -5 -38 -15 -55
-21 l-33 -12 0 -273 0 -272 26 -39 c15 -21 42 -56 61 -78 50 -55 35 -65 -82
-55 -49 4 -175 8 -278 8 -223 1 -226 3 -149 85 28 30 53 64 56 77 3 13 7 127
8 252 l3 228 -24 6 c-13 3 -103 2 -200 -3 l-176 -9 -3 -225 c-1 -124 0 -234 3
-246 2 -12 30 -49 60 -83 31 -35 54 -68 52 -74 -2 -8 -54 -15 -148 -19 -79 -4
-160 -12 -180 -18 -20 -5 -77 -10 -127 -10 -50 0 -103 -5 -118 -10 -49 -19
-75 26 -28 50 14 8 48 42 75 76 l49 62 0 275 0 275 -45 26 c-28 17 -45 34 -45
46 0 11 19 32 45 51 25 18 45 37 46 43 0 6 0 128 -1 271 l-1 260 -32 29 c-18
16 -47 42 -65 58 -57 51 -55 51 258 68 107 5 206 12 220 14 61 8 91 5 96 -9z
m2319 -4 c3 -5 1 -12 -5 -16 -14 -9 -52 4 -45 16 8 12 42 12 50 0z m-1270 -20
c55 -5 109 -12 120 -15 11 -4 56 -11 100 -16 44 -5 107 -14 140 -20 33 -5 103
-17 155 -26 52 -8 131 -21 175 -29 44 -8 101 -15 127 -15 26 0 49 -4 52 -9 3
-5 10 -73 16 -152 5 -79 12 -160 15 -179 2 -19 1 -41 -4 -49 -8 -12 -13 -12
-36 3 -14 9 -34 30 -44 46 -33 56 -62 69 -177 84 -60 8 -112 12 -116 10 -4 -3
-8 -101 -8 -218 l0 -214 27 -18 c66 -43 84 -99 36 -110 -16 -3 -33 -7 -39 -9
-19 -6 -22 -57 -23 -314 -1 -275 -6 -251 82 -353 81 -94 66 -100 -138 -56 -49
11 -117 26 -150 33 -33 7 -80 18 -105 24 -25 6 -73 11 -107 11 -93 0 -97 31
-12 90 79 55 79 54 79 336 0 241 -1 248 -22 271 -12 13 -27 23 -33 23 -6 0
-21 10 -33 23 -20 21 -21 25 -6 45 8 12 20 22 25 22 6 0 25 11 43 25 l33 25
-5 207 c-3 138 -8 210 -16 215 -6 4 -31 8 -54 8 -24 0 -72 7 -106 17 l-62 16
-52 -39 c-29 -21 -52 -42 -52 -46 0 -11 -28 -10 -34 1 -3 5 1 55 10 112 17
110 13 177 -10 211 -26 37 -10 51 53 44 31 -4 101 -11 156 -15z m-3321 -40
c13 -20 -43 -57 -144 -96 -89 -34 -121 -46 -230 -85 -19 -6 -51 -15 -71 -19
-19 -4 -41 -11 -48 -16 -8 -4 -27 -11 -45 -15 -17 -5 -56 -18 -86 -30 -30 -12
-75 -27 -100 -35 -25 -7 -78 -23 -119 -35 l-75 -22 -140 17 c-142 18 -306 48
-326 60 -5 3 -10 13 -10 21 0 17 41 14 185 -13 129 -24 276 -28 334 -9 28 9
55 16 61 16 7 0 26 6 43 14 18 8 79 30 137 50 136 45 168 56 210 71 19 7 107
36 195 64 88 29 167 56 175 61 19 12 47 13 54 1z m5126 -28 c41 -13 84 -28 95
-33 11 -5 52 -19 90 -31 39 -12 84 -28 100 -34 17 -7 53 -20 80 -30 28 -10 64
-24 82 -31 17 -8 38 -14 46 -14 8 0 28 -7 43 -15 16 -8 38 -15 49 -15 11 0 29
-7 39 -15 11 -8 29 -15 41 -15 12 0 27 -6 33 -12 21 -21 238 -23 320 -4 37 9
103 21 147 27 44 6 97 13 118 16 24 3 37 1 37 -6 0 -7 -6 -13 -12 -15 -7 -2
-29 -9 -48 -16 -19 -7 -62 -16 -95 -21 -33 -4 -96 -15 -140 -23 -44 -9 -115
-21 -158 -26 -86 -12 -80 -13 -322 66 -71 23 -175 56 -230 74 -110 35 -253 85
-300 105 -16 7 -49 21 -73 31 -50 20 -67 38 -58 60 4 11 12 14 24 9 9 -4 51
-18 92 -32z m-3792 -47 c37 -25 83 -58 102 -74 l35 -29 0 -122 c0 -133 -3
-141 -60 -141 -40 0 -172 -28 -213 -46 -58 -25 -62 -21 -62 55 0 94 -3 96
-131 71 -217 -44 -255 -54 -286 -72 l-31 -19 3 -461 c3 -428 5 -462 21 -471
29 -16 314 38 390 74 l29 14 3 138 c2 106 0 137 -10 137 -7 0 -51 -14 -98 -30
-47 -17 -91 -28 -98 -25 -10 3 -12 40 -10 152 l3 148 45 3 c43 2 151 24 215
42 17 5 50 12 75 15 49 7 125 29 178 51 50 21 62 18 62 -16 0 -20 11 -42 35
-68 42 -47 38 -71 -16 -101 l-39 -22 0 -239 c0 -131 -4 -249 -9 -262 -13 -32
-53 -73 -147 -149 -84 -68 -94 -72 -254 -104 -47 -10 -107 -23 -135 -30 -27
-7 -72 -18 -100 -25 -27 -7 -77 -19 -110 -27 -117 -29 -164 -28 -236 6 -35 16
-82 49 -104 71 -45 46 -42 13 -30 320 8 210 8 213 -73 245 -52 21 -55 46 -7
75 19 11 46 35 60 52 l26 31 -2 190 c-1 105 -5 203 -9 218 -5 15 -4 47 1 71 9
37 27 60 133 163 l122 121 90 17 c49 9 102 17 117 17 15 0 56 6 90 14 34 8
100 22 147 31 47 9 101 20 120 24 74 18 98 13 168 -33z m3077 -51 c22 -8 52
-15 67 -15 15 0 37 -4 50 -9 13 -5 68 -19 123 -31 55 -12 118 -28 140 -35 47
-15 123 -34 180 -46 22 -4 78 -17 125 -28 47 -12 108 -25 136 -30 28 -5 70
-15 93 -21 l41 -11 0 -117 c0 -64 5 -155 10 -202 8 -69 7 -87 -5 -99 -12 -12
-17 -12 -39 3 -14 9 -26 20 -26 25 0 19 -101 111 -127 117 -15 3 -48 12 -73
19 -25 8 -74 21 -110 31 -121 31 -175 46 -196 54 -42 16 -49 -1 -55 -147 -4
-76 -5 -147 -2 -158 3 -16 22 -26 81 -44 42 -13 95 -30 116 -38 21 -8 65 -15
96 -16 49 -1 62 3 89 26 38 31 47 33 55 11 3 -9 6 -119 6 -245 0 -259 -2 -265
-65 -181 -48 63 -79 85 -150 106 -33 10 -76 25 -95 32 -59 22 -112 27 -121 12
-12 -18 -11 -331 1 -362 5 -15 17 -26 29 -26 10 0 43 -11 72 -23 30 -13 88
-34 129 -46 74 -23 126 -41 187 -67 17 -8 50 -14 74 -14 35 0 51 7 91 41 58
49 84 47 73 -4 -4 -17 -9 -115 -11 -217 -5 -236 -4 -231 -48 -216 -18 6 -40
16 -47 21 -43 31 -313 138 -414 165 -16 4 -41 12 -55 18 -14 5 -52 18 -85 27
-33 10 -76 23 -95 30 -69 24 -136 44 -210 61 -181 41 -190 51 -106 114 30 23
57 49 60 58 2 10 8 144 11 300 l7 283 -46 41 c-25 23 -46 49 -46 59 0 10 16
27 35 39 19 12 40 30 45 40 6 11 10 128 10 283 l0 264 -28 39 c-16 21 -36 45
-46 53 -28 23 -58 70 -51 81 9 14 73 12 120 -5z m-4288 -121 c3 -8 -4 -28 -16
-44 -11 -16 -21 -34 -21 -39 0 -6 -6 -14 -13 -18 -7 -4 -27 -29 -44 -55 l-31
-47 -3 -303 -3 -304 47 -44 c46 -42 47 -44 30 -62 -10 -11 -30 -26 -45 -34
l-28 -15 0 -283 0 -283 26 -19 c84 -60 109 -93 83 -110 -15 -9 -227 -83 -268
-94 -18 -5 -38 -13 -44 -19 -6 -6 -19 -11 -28 -11 -16 0 -129 -45 -196 -78
-25 -13 -35 -14 -45 -4 -9 9 -1 27 35 82 26 38 47 72 47 75 0 3 9 18 20 33 18
25 20 49 26 308 l7 281 -39 27 c-21 14 -44 26 -50 26 -7 0 -15 8 -19 17 -6 18
28 55 83 93 22 14 22 17 22 327 l0 313 -35 39 c-19 21 -51 49 -70 62 -19 13
-35 30 -35 36 0 13 2 14 126 43 43 10 104 25 134 34 30 10 73 21 95 25 40 7
72 16 155 44 61 20 89 20 97 1z m5434 -155 c19 -6 57 -22 85 -35 56 -25 123
-51 169 -64 40 -11 92 -29 133 -46 18 -8 41 -14 50 -14 10 0 23 -5 29 -11 6
-6 26 -14 44 -19 19 -5 59 -18 89 -30 30 -11 84 -30 120 -41 189 -60 201 -68
295 -194 45 -60 85 -117 89 -125 4 -8 13 -26 21 -40 12 -20 15 -83 15 -337 0
-171 -4 -323 -9 -336 -25 -65 -128 -127 -212 -127 -26 0 -50 -4 -53 -8 -5 -8
12 -88 40 -187 7 -27 21 -77 30 -110 9 -33 22 -76 29 -95 7 -19 20 -64 30
-100 24 -94 53 -198 90 -315 7 -22 20 -69 30 -105 23 -86 45 -159 58 -190 5
-14 13 -41 18 -60 10 -44 33 -118 59 -194 22 -66 25 -96 9 -96 -6 0 -36 24
-67 53 -82 77 -209 170 -297 217 -65 36 -77 50 -70 86 5 29 -2 66 -44 214 -5
19 -17 64 -27 100 -33 129 -47 176 -60 215 -8 23 -14 50 -14 62 0 12 -6 37
-14 55 -19 45 -47 145 -91 318 -25 97 -48 174 -57 186 -5 7 -21 14 -36 17 -15
3 -35 9 -44 12 -17 7 -18 -13 -18 -336 0 -386 2 -398 81 -529 68 -114 44 -123
-91 -34 -56 36 -172 102 -258 146 -86 44 -163 84 -169 90 -23 19 -14 36 32 59
25 13 51 30 58 38 9 10 13 120 15 413 l3 400 -50 45 c-28 26 -51 54 -51 63 0
9 20 29 44 44 25 15 47 34 50 41 2 7 6 167 7 354 l2 341 -27 37 c-14 21 -49
62 -76 92 -51 55 -60 75 -37 84 6 3 12 6 13 6 1 1 16 -4 35 -10z m-6163 -277
c1 -128 -1 -232 -4 -232 -4 0 -31 18 -60 40 -32 24 -64 40 -81 40 -24 0 -126
-38 -283 -107 -88 -38 -156 -65 -193 -77 -17 -6 -18 -20 -15 -208 2 -112 6
-208 10 -214 8 -11 89 10 203 53 98 37 165 88 201 151 40 70 44 50 44 -248 0
-237 -2 -280 -14 -280 -8 0 -23 14 -33 30 -20 34 -59 40 -115 16 -18 -8 -72
-30 -120 -50 -48 -20 -106 -46 -129 -59 l-42 -22 1 -325 c1 -179 -2 -379 -6
-445 l-8 -120 44 -47 c25 -27 42 -54 40 -64 -2 -10 -30 -33 -63 -52 -95 -54
-191 -119 -317 -214 -64 -48 -124 -88 -133 -88 -23 0 -19 39 10 90 14 25 43
81 64 125 l38 80 5 493 c5 448 4 494 -11 499 -56 20 -66 68 -22 105 16 14 33
33 38 44 5 11 8 174 5 402 l-4 383 -27 28 c-14 15 -43 39 -63 54 -52 38 -49
58 11 80 27 9 55 17 64 17 8 0 48 14 88 31 41 17 92 38 114 46 22 8 53 21 68
29 16 8 36 14 45 14 9 0 26 7 36 15 11 8 28 15 38 15 9 0 32 6 50 14 18 8 51
21 73 29 70 26 119 44 165 62 25 9 63 24 85 32 22 8 51 20 65 26 57 24 116 44
125 42 6 -1 11 -89 13 -233z m3620 -1027 c23 -8 12 -30 -41 -86 l-54 -56 -6
-239 -7 -239 40 -35 c22 -19 40 -43 40 -53 0 -9 -18 -30 -40 -45 l-39 -27 -1
-242 0 -242 -57 -57 c-32 -31 -82 -73 -112 -93 l-54 -36 -225 -9 c-201 -8
-228 -7 -260 8 -45 22 -147 101 -190 146 l-32 35 1 233 c1 233 -3 261 -35 262
-18 1 -56 37 -56 54 0 9 18 27 39 40 22 14 43 30 47 37 15 24 25 282 15 396
l-9 115 -46 44 c-25 24 -46 48 -46 54 0 5 21 10 48 10 26 0 65 4 87 9 22 5
109 12 193 16 148 7 152 7 152 -13 0 -11 -21 -41 -46 -66 -35 -34 -46 -52 -45
-73 0 -16 2 -241 4 -502 l3 -473 23 -19 c19 -16 40 -19 128 -19 90 0 111 3
139 21 19 11 34 26 34 32 0 7 3 81 6 165 l6 152 -36 35 c-20 18 -36 42 -36 52
0 10 17 34 38 53 l37 35 -5 259 -5 258 -32 28 c-43 39 -57 67 -39 77 14 8 450
6 474 -2z m-1241 -42 c3 -7 -20 -35 -49 -62 l-53 -50 3 -273 c2 -227 5 -275
17 -284 19 -14 19 -63 1 -83 -11 -12 -17 -83 -26 -304 l-12 -287 31 -35 c59
-67 42 -82 -119 -105 -76 -11 -93 -15 -186 -44 -64 -20 -104 -21 -104 -2 0 7
16 34 35 59 46 60 58 118 47 234 -4 51 -4 102 0 114 5 13 7 66 6 118 l-3 96
-30 -2 c-16 -1 -52 -9 -80 -18 -27 -8 -75 -22 -105 -31 -30 -9 -74 -25 -98
-35 l-43 -19 3 -228 3 -227 38 -36 c20 -21 37 -42 37 -48 0 -19 -46 -41 -104
-51 -54 -9 -90 -18 -161 -42 -16 -5 -43 -14 -60 -18 -16 -5 -50 -16 -74 -25
-77 -28 -91 -5 -38 66 62 83 62 80 64 372 2 244 0 269 -15 274 -9 2 -32 12
-49 21 -48 24 -44 39 22 84 l40 27 3 273 3 273 -48 42 c-41 36 -46 45 -37 60
6 10 24 21 40 25 49 11 136 28 189 38 64 11 158 36 182 48 51 26 58 -31 11
-85 -57 -66 -56 -61 -50 -312 l5 -232 41 6 c43 7 130 29 181 47 17 5 47 13 67
18 69 14 68 8 68 251 l0 219 -40 37 c-40 38 -51 69 -27 78 13 6 161 31 262 45
33 5 74 13 90 19 39 13 117 9 122 -6z m1489 7 c16 -5 65 -14 109 -20 79 -10
187 -28 295 -49 98 -19 184 -33 225 -38 48 -6 123 -73 216 -195 l59 -77 0
-138 c0 -168 -12 -202 -89 -259 -28 -21 -51 -42 -51 -47 0 -5 24 -34 53 -65
98 -107 89 -76 88 -304 -2 -179 -4 -206 -21 -233 -24 -39 -72 -84 -133 -123
-42 -28 -56 -32 -117 -32 -38 0 -79 5 -92 10 -35 16 -236 70 -295 80 -28 4
-57 11 -64 15 -19 12 -157 36 -239 42 -41 2 -79 8 -83 13 -13 12 9 46 47 75
19 14 39 38 44 53 6 15 13 133 17 262 l6 235 -57 51 c-66 59 -65 73 7 108 l44
21 3 243 2 243 -60 63 c-33 34 -57 66 -53 69 10 10 106 8 139 -3z"/>
<path d="M4617 7123 c-4 -3 -7 -23 -7 -43 0 -44 -5 -48 -95 -96 -81 -42 -92
-40 -245 36 -9 4 -16 25 -18 54 -4 55 -21 58 -35 5 -20 -75 -6 -104 90 -195
119 -113 127 -113 248 2 l90 85 0 69 c0 64 -12 100 -28 83z"/>
<path d="M4285 6766 c-22 -7 -58 -17 -80 -22 -25 -6 -40 -15 -40 -24 0 -13 36
-15 263 -15 145 0 269 3 275 8 17 10 -20 37 -51 37 -13 0 -49 7 -79 16 -45 13
-63 14 -97 5 -29 -8 -51 -9 -76 -1 -44 13 -66 12 -115 -4z"/>
<path d="M4335 6621 c-42 -5 -51 -10 -53 -29 -6 -39 53 -56 168 -49 119 7 132
12 128 46 -2 20 -10 27 -33 32 -37 8 -143 8 -210 0z"/>
<path d="M5821 5801 c-12 -8 -9 -11 12 -16 15 -4 35 -4 44 0 17 7 16 8 -2 15
-27 11 -37 11 -54 1z"/>
<path d="M5535 5730 c-8 -13 15 -13 35 0 12 8 11 10 -7 10 -12 0 -25 -4 -28
-10z"/>
<path d="M3360 5710 c0 -5 10 -12 23 -14 12 -3 36 -8 52 -11 17 -3 50 -10 74
-15 24 -6 47 -7 52 -4 17 10 -2 24 -29 23 -15 -1 -44 6 -64 15 -41 18 -108 22
-108 6z"/>
<path d="M5415 5704 c-9 -9 -33 -17 -53 -18 -20 -1 -37 -5 -37 -11 0 -13 65
-9 79 5 5 5 27 10 47 10 43 0 69 8 69 21 0 16 -88 10 -105 -7z"/>
<path d="M6163 5643 c9 -2 25 -2 35 0 9 3 1 5 -18 5 -19 0 -27 -2 -17 -5z"/>
<path d="M3537 6089 c8 -8 16 -8 30 0 16 9 14 10 -11 11 -22 0 -27 -3 -19 -11z"/>
<path d="M3317 5203 c-14 -13 -6 -24 15 -21 27 4 36 28 11 28 -11 0 -23 -3
-26 -7z"/>
<path d="M5351 5181 c-25 -16 -4 -36 50 -50 74 -17 245 -82 454 -171 71 -30
185 -87 220 -110 17 -11 39 -24 50 -29 11 -5 36 -25 55 -45 41 -42 50 -44 50
-12 0 35 -65 97 -164 155 -48 28 -89 51 -91 51 -3 0 -35 14 -71 31 -65 31
-177 72 -406 149 -129 44 -127 43 -147 31z"/>
<path d="M7014 5079 c-3 -5 9 -9 25 -9 17 0 31 2 31 4 0 8 -51 13 -56 5z"/>
<path d="M7270 4830 c20 -13 40 -13 40 0 0 6 -12 10 -27 10 -22 0 -25 -2 -13
-10z"/>
<path d="M1165 4235 c-16 -8 -45 -14 -63 -15 -18 0 -60 -7 -95 -16 -147 -37
-177 -44 -272 -58 -55 -9 -125 -21 -155 -27 -30 -6 -75 -14 -100 -18 -25 -4
-59 -15 -76 -24 -44 -23 -115 -107 -112 -132 3 -18 11 -20 93 -21 50 -1 117 5
150 13 100 23 178 44 210 55 17 5 48 13 70 17 53 10 222 59 263 77 18 8 41 14
52 14 25 0 50 10 50 21 0 14 -90 11 -153 -6 -106 -27 -177 -13 -100 21 42 17
126 42 188 54 22 5 41 13 43 19 2 6 18 11 35 11 42 0 77 10 77 21 0 14 -71 9
-105 -6z"/>
<path d="M1223 4153 c-18 -6 -16 -23 1 -23 17 0 30 16 19 23 -5 2 -14 2 -20 0z"/>
<path d="M1600 4120 c-22 -7 -21 -8 13 -9 20 -1 37 4 37 9 0 11 -14 11 -50 0z"/>
<path d="M7605 4240 c-5 -9 3 -12 65 -23 14 -3 39 -10 55 -16 17 -6 57 -18 90
-27 92 -25 156 -49 158 -60 3 -16 -120 -16 -168 1 -50 16 -135 20 -135 6 0
-12 26 -21 63 -21 18 0 41 -7 51 -15 11 -8 30 -15 43 -15 12 0 40 -6 60 -14
21 -7 65 -21 98 -31 33 -9 80 -23 105 -30 161 -46 243 -62 372 -70 107 -7 138
1 138 38 0 15 -17 37 -47 62 -62 52 -89 66 -143 76 -25 4 -65 12 -90 18 -25 5
-88 17 -140 26 -100 17 -198 38 -291 61 -30 8 -71 14 -91 14 -19 0 -55 7 -78
15 -48 17 -106 20 -115 5z"/>
<path d="M7926 2772 c-2 -4 -6 -104 -7 -221 -3 -237 -5 -229 66 -250 16 -5 55
-19 85 -31 87 -34 191 -61 209 -55 36 11 43 46 37 176 -10 220 -14 246 -44
268 -56 39 -271 121 -319 121 -12 0 -24 -3 -27 -8z"/>
<path d="M5474 1637 c-2 -7 -3 -76 -2 -152 l3 -140 35 -7 c19 -4 65 -14 102
-21 85 -18 150 -12 177 17 17 18 21 37 23 107 1 46 -1 93 -5 105 -8 23 -77 54
-177 78 -103 24 -150 28 -156 13z"/>
<path d="M5461 947 c1 -85 4 -159 8 -165 10 -15 68 -42 93 -42 13 -1 34 -7 48
-15 15 -9 54 -14 101 -15 101 0 104 3 104 139 0 170 -2 174 -85 192 -19 4 -73
17 -120 29 -47 11 -100 23 -118 27 l-33 6 2 -156z"/>
</g>
</svg>
